<?xml version="1.0" encoding="UTF-8"?>
<!DOCTYPE svg PUBLIC "-//W3C//DTD SVG 1.1//EN" "http://www.w3.org/Graphics/SVG/1.1/DTD/svg11.dtd">
<svg xmlns="http://www.w3.org/2000/svg" version="1.1" width="121px" height="109px" style="shape-rendering:geometricPrecision; text-rendering:geometricPrecision; image-rendering:optimizeQuality; fill-rule:evenodd; clip-rule:evenodd" xmlns:xlink="http://www.w3.org/1999/xlink">
<g><path style="opacity:1" fill="#010101" d="M -0.5,-0.5 C 37.5,-0.5 75.5,-0.5 113.5,-0.5C 78.2015,35.2987 42.7015,70.9654 7,106.5C 6.53566,107.094 6.36899,107.761 6.5,108.5C 4.16667,108.5 1.83333,108.5 -0.5,108.5C -0.5,72.1667 -0.5,35.8333 -0.5,-0.5 Z"/></g>
<g><path style="opacity:1" fill="#000000" d="M 115.5,-0.5 C 117.167,-0.5 118.833,-0.5 120.5,-0.5C 120.5,35.8333 120.5,72.1667 120.5,108.5C 82.8333,108.5 45.1667,108.5 7.5,108.5C 43.5,72.1667 79.5,35.8333 115.5,-0.5 Z"/></g>
<g><path style="opacity:1" fill="#efefef" d="M 26.5,16.5 C 32.6615,15.2522 37.3281,17.2522 40.5,22.5C 37.5153,23.8701 34.8486,23.3701 32.5,21C 29.3637,19.9595 26.8637,20.7928 25,23.5C 24.1628,27.2946 24.4961,30.9613 26,34.5C 28.2431,36.282 30.7431,36.782 33.5,36C 35.0368,34.8904 35.7035,33.3904 35.5,31.5C 33.8333,31.5 32.1667,31.5 30.5,31.5C 30.5,30.1667 30.5,28.8333 30.5,27.5C 33.8333,27.5 37.1667,27.5 40.5,27.5C 40.9252,38.8158 35.5918,42.6491 24.5,39C 19.4227,34.0111 18.2561,28.1778 21,21.5C 22.7297,19.5981 24.563,17.9314 26.5,16.5 Z"/></g>
<g><path style="opacity:1" fill="#bfbfbf" d="M 113.5,-0.5 C 114.167,-0.5 114.833,-0.5 115.5,-0.5C 79.5,35.8333 43.5,72.1667 7.5,108.5C 7.16667,108.5 6.83333,108.5 6.5,108.5C 6.36899,107.761 6.53566,107.094 7,106.5C 42.7015,70.9654 78.2015,35.2987 113.5,-0.5 Z"/></g>
<g><path style="opacity:1" fill="#727272" d="M 84.5,62.5 C 82.1667,62.5 79.8333,62.5 77.5,62.5C 77.5,69.8333 77.5,77.1667 77.5,84.5C 78.8333,84.5 80.1667,84.5 81.5,84.5C 80.0813,85.4511 78.4147,85.7845 76.5,85.5C 76.5,77.5 76.5,69.5 76.5,61.5C 79.3854,61.1936 82.0521,61.5269 84.5,62.5 Z"/></g>
<g><path style="opacity:1" fill="#f1f1f1" d="M 84.5,62.5 C 85.6619,67.1477 86.8286,71.8143 88,76.5C 89.2122,71.6196 90.7122,66.9529 92.5,62.5C 94.5,62.5 96.5,62.5 98.5,62.5C 98.5,69.8333 98.5,77.1667 98.5,84.5C 97.5,84.5 96.5,84.5 95.5,84.5C 95.6661,78.8236 95.4994,73.1569 95,67.5C 94.4867,68.5266 93.9867,69.5266 93.5,70.5C 92.3414,75.4678 91.3414,80.4678 90.5,85.5C 88.8333,85.5 87.1667,85.5 85.5,85.5C 84.3373,80.1807 83.1706,74.8474 82,69.5C 81.5007,74.4889 81.3341,79.4889 81.5,84.5C 80.1667,84.5 78.8333,84.5 77.5,84.5C 77.5,77.1667 77.5,69.8333 77.5,62.5C 79.8333,62.5 82.1667,62.5 84.5,62.5 Z"/></g>
<g><path style="opacity:1" fill="#9b9b9b" d="M 92.5,62.5 C 94.6074,61.5318 96.9407,61.1984 99.5,61.5C 99.5,69.5 99.5,77.5 99.5,85.5C 97.8333,85.5 96.1667,85.5 94.5,85.5C 94.8205,80.3054 94.4872,75.3054 93.5,70.5C 93.9867,69.5266 94.4867,68.5266 95,67.5C 95.4994,73.1569 95.6661,78.8236 95.5,84.5C 96.5,84.5 97.5,84.5 98.5,84.5C 98.5,77.1667 98.5,69.8333 98.5,62.5C 96.5,62.5 94.5,62.5 92.5,62.5 Z"/></g>
</svg>
